<svg width="190" height="162" viewBox="0 0 190 162" fill="none" xmlns="http://www.w3.org/2000/svg">
<path d="M59 133C59.6667 142.333 62.5 160.7 68.5 159.5" stroke="#00B3B3" stroke-width="2"/>
<path d="M43 134C42.1579 142.786 38.5789 160.077 31 158.947" stroke="#00B3B3" stroke-width="2"/>
<path d="M16.0692 37.162L76.9616 35.0356L76.9616 81.5001L76.9616 81.5336L76.9639 81.5671L80.3497 131.976L19.455 134.103L19.4551 86.0001L19.4551 85.9654L19.4527 85.9309L16.0692 37.162Z" fill="white" stroke="#00B3B3" stroke-width="2"/>
<path d="M110.455 36.0355L171.344 38.1618L167.964 84.9279L167.962 84.9639L167.962 85L167.962 135.103L107.069 132.976L110.453 84.069L110.455 84.0346L110.455 84L110.455 36.0355Z" fill="white" stroke="#00B3B3" stroke-width="2"/>
<path d="M77 81C78.2308 86.5955 83.1538 97.3991 93 95.8496" stroke="#00B3B3" stroke-width="2"/>
<path d="M110 89C108.923 91.6112 104.615 96.6529 96 95.9298" stroke="#00B3B3" stroke-width="2"/>
<path d="M168 84C169.615 88.1034 176.077 96.026 189 94.8897" stroke="#00B3B3" stroke-width="2"/>
<path d="M19 82C17.6154 86.1034 12.0769 94.026 1 92.8897" stroke="#00B3B3" stroke-width="2"/>
<ellipse cx="94.5" cy="96" rx="4.5" ry="3" fill="#684C4C"/>
<path d="M147 134C147.632 143.489 150.316 162.163 156 160.943" stroke="#00B3B3" stroke-width="2"/>
<path d="M130 133C129.158 141.786 125.579 159.077 118 157.947" stroke="#00B3B3" stroke-width="2"/>
<rect x="29.2586" y="47.748" width="14.0231" height="20.8233" transform="rotate(-2 29.2586 47.748)" fill="#88D9E4" fill-opacity="0.45" stroke="#684C4C" stroke-width="0.5"/>
<rect x="121.985" y="50.2586" width="14.0231" height="20.8233" transform="rotate(2 121.985 50.2586)" fill="#88D9E4" fill-opacity="0.45" stroke="#684C4C" stroke-width="0.5"/>
<rect x="51.2586" y="46.748" width="14.0231" height="20.8233" transform="rotate(-2 51.2586 46.748)" fill="#88D9E4" fill-opacity="0.45" stroke="#684C4C" stroke-width="0.5"/>
<rect x="52.2586" y="77.748" width="14.0231" height="20.8233" transform="rotate(-2 52.2586 77.748)" fill="#88D9E4" fill-opacity="0.45" stroke="#684C4C" stroke-width="0.5"/>
<rect x="30.2586" y="78.748" width="14.0231" height="20.8233" transform="rotate(-2 30.2586 78.748)" fill="#88D9E4" fill-opacity="0.45" stroke="#684C4C" stroke-width="0.5"/>
<rect x="144.985" y="51.2586" width="14.0231" height="20.8233" transform="rotate(2 144.985 51.2586)" fill="#88D9E4" fill-opacity="0.45" stroke="#684C4C" stroke-width="0.5"/>
<rect x="143.985" y="79.2586" width="14.0231" height="20.8233" transform="rotate(2 143.985 79.2586)" fill="#88D9E4" fill-opacity="0.45" stroke="#684C4C" stroke-width="0.5"/>
<rect x="120.985" y="78.2586" width="14.0231" height="20.8233" transform="rotate(2 120.985 78.2586)" fill="#88D9E4" fill-opacity="0.45" stroke="#684C4C" stroke-width="0.5"/>
<rect x="42.5859" y="108.269" width="15" height="24" transform="rotate(-2 42.5859 108.269)" fill="#684C4C"/>
<rect x="131.838" y="109" width="15" height="24" transform="rotate(2 131.838 109)" fill="#684C4C"/>
<path d="M142.115 3.41343L175.938 39.866L105.833 37.4179L142.115 3.41343Z" fill="#00B3B3"/>
<path d="M44.4753 1.41323L80.7582 35.4177L10.6529 37.8658L44.4753 1.41323Z" fill="#00B3B3"/>
<circle cx="55" cy="121" r="1" fill="#C6CA19"/>
<circle cx="134" cy="122" r="1" fill="#C6CA19"/>
</svg>
